<svg xmlns="http://www.w3.org/2000/svg" viewBox="0 0 720 360" width="720" height="360"
     font-family="system-ui, -apple-system, Segoe UI, Roboto, sans-serif">
  <rect width="720" height="360" fill="#ffffff"/>
  <line x1="62" y1="314.0" x2="570" y2="314.0" stroke="#e2e8ee" stroke-width="1"/><text x="53" y="318.0" font-size="11" fill="#5b6b7c" text-anchor="end">0</text><line x1="62" y1="243.0" x2="570" y2="243.0" stroke="#e2e8ee" stroke-width="1"/><text x="53" y="247.0" font-size="11" fill="#5b6b7c" text-anchor="end">129</text><line x1="62" y1="172.0" x2="570" y2="172.0" stroke="#e2e8ee" stroke-width="1"/><text x="53" y="176.0" font-size="11" fill="#5b6b7c" text-anchor="end">259</text><line x1="62" y1="101.0" x2="570" y2="101.0" stroke="#e2e8ee" stroke-width="1"/><text x="53" y="105.0" font-size="11" fill="#5b6b7c" text-anchor="end">389</text><line x1="62" y1="30.0" x2="570" y2="30.0" stroke="#e2e8ee" stroke-width="1"/><text x="53" y="34.0" font-size="11" fill="#5b6b7c" text-anchor="end">519</text><text x="62.0" y="332" font-size="11" fill="#5b6b7c" text-anchor="middle">10</text><text x="163.1" y="332" font-size="11" fill="#5b6b7c" text-anchor="middle">25</text><text x="239.5" y="332" font-size="11" fill="#5b6b7c" text-anchor="middle">50</text><text x="316.0" y="332" font-size="11" fill="#5b6b7c" text-anchor="middle">100</text><text x="417.1" y="332" font-size="11" fill="#5b6b7c" text-anchor="middle">250</text><text x="493.5" y="332" font-size="11" fill="#5b6b7c" text-anchor="middle">500</text><text x="570.0" y="332" font-size="11" fill="#5b6b7c" text-anchor="middle">1000</text>
  <path d="M62.0 310.8 L163.1 307.4 L239.5 301.7 L316.0 289.4 L417.1 247.5 L493.5 206.2 L570.0 51.0" fill="none" stroke="#D55E00" stroke-width="2.4"/>
  <path d="M62.0 312.4 L163.1 311.3 L239.5 310.6 L316.0 306.6 L417.1 297.8 L493.5 285.9 L570.0 260.3" fill="none" stroke="#0072B2" stroke-width="2.4"/>
  <circle cx="62.0" cy="310.8" r="3.4" fill="#D55E00"/><circle cx="163.1" cy="307.4" r="3.4" fill="#D55E00"/><circle cx="239.5" cy="301.7" r="3.4" fill="#D55E00"/><circle cx="316.0" cy="289.4" r="3.4" fill="#D55E00"/><circle cx="417.1" cy="247.5" r="3.4" fill="#D55E00"/><circle cx="493.5" cy="206.2" r="3.4" fill="#D55E00"/><circle cx="570.0" cy="51.0" r="3.4" fill="#D55E00"/><circle cx="62.0" cy="312.4" r="3.4" fill="#0072B2"/><circle cx="163.1" cy="311.3" r="3.4" fill="#0072B2"/><circle cx="239.5" cy="310.6" r="3.4" fill="#0072B2"/><circle cx="316.0" cy="306.6" r="3.4" fill="#0072B2"/><circle cx="417.1" cy="297.8" r="3.4" fill="#0072B2"/><circle cx="493.5" cy="285.9" r="3.4" fill="#0072B2"/><circle cx="570.0" cy="260.3" r="3.4" fill="#0072B2"/>
  <text x="62" y="18" font-size="13" font-weight="600" fill="#16202b">
    Nodes expanded: Dijkstra vs A*</text>
  <text x="320" y="352" font-size="11" fill="#5b6b7c" text-anchor="middle">
    vertices (log scale)</text>
  <text transform="translate(16,220) rotate(-90)" font-size="11" fill="#5b6b7c">
    nodes expanded per search</text>
  <g transform="translate(582,36)">
    <line x1="0" y1="0" x2="20" y2="0" stroke="#D55E00" stroke-width="2.4"/>
    <text x="26" y="4" font-size="12" fill="#16202b">Dijkstra</text>
    <line x1="0" y1="22" x2="20" y2="22" stroke="#0072B2" stroke-width="2.4"/>
    <text x="26" y="26" font-size="12" fill="#16202b">A*</text>
    <text x="0" y="58" font-size="11" fill="#5b6b7c">A* expands</text>
    <text x="0" y="74" font-size="11" fill="#5b6b7c">
      52% at V=10</text>
    <text x="0" y="90" font-size="11" fill="#5b6b7c">
      22% at V=1000</text>
    <text x="0" y="116" font-size="11" fill="#009E73">costs agree on</text>
    <text x="0" y="132" font-size="11" fill="#009E73">every pair</text>
  </g>
</svg>
